# File created by Blade
# Date/Time:  Thu Jan 22 16:31:19 2015
#---------------------------------------------------------
:version 1.10
:name HOM
:units
  mass 1.0
  length 1.000000
  angle deg
:documentation
     Acclaim Skeleton File
:root
   axis xyz
   order TX TY TZ RX RY RZ
   position 0.000000 0.000000 0.000000
   orientation 0 0 0
:bonedata
   begin
      id 1
      name RightUpLeg_dum
      direction -1.000000 0.000000 0.000000
      length 3.766986
      axis 0.0 0.0 0.0 xyz
   end
   begin
      id 2
      name LeftUpLeg_dum
      direction 1.000000 0.000000 0.000000
      length 3.766986
      axis 0.0 0.0 0.0 xyz
   end
   begin
      id 3
      name Spine_dum
      direction 0.000000 1.000000 0.000000
      length 7.779697
      axis 0.0 0.0 0.0 xyz
   end
   begin
      id 4
      name RightUpLeg
      direction 0.000000 -1.000000 0.000000
      length 18.017682
      axis 0.0 0.0 0.0 xyz
      dof rx ry rz
   end
   begin
      id 5
      name RightLeg
      direction 0.000000 -1.000000 0.000000
      length 16.881075
      axis 0.0 0.0 0.0 xyz
      dof rx ry rz
   end
   begin
      id 6
      name RightFoot
      direction 0.000000 -0.258819 0.965926
      length 5.770812
      axis 15.0 0.0 0.0 xyz
      dof rx ry rz
   end
   begin
      id 7
      name RightToeBase
      direction 0.000000 0.000000 1.000000
      length 2.952750
      axis 0.0 0.0 0.0 xyz
      dof rx ry rz
   end
   begin
      id 8
      name LeftUpLeg
      direction 0.000000 -1.000000 0.000000
      length 18.017682
      axis 0.0 0.0 0.0 xyz
      dof rx ry rz
   end
   begin
      id 9
      name LeftLeg
      direction 0.000000 -1.000000 0.000000
      length 16.881075
      axis 0.0 0.0 0.0 xyz
      dof rx ry rz
   end
   begin
      id 10
      name LeftFoot
      direction 0.000000 -0.258819 0.965926
      length 5.770812
      axis 15.0 0.0 0.0 xyz
      dof rx ry rz
   end
   begin
      id 11
      name LeftToeBase
      direction 0.000000 0.000000 1.000000
      length 2.952750
      axis 0.0 0.0 0.0 xyz
      dof rx ry rz
   end
   begin
      id 12
      name Spine
      direction 0.000000 1.000000 0.000000
      length 0.000000
      axis 0.0 0.0 0.0 xyz
      dof rx ry rz
   end
   begin
      id 13
      name Spine_dum1
      direction 0.000000 1.000000 0.000000
      length 10.941760
      axis 0.0 0.0 0.0 xyz
   end
   begin
      id 14
      name Spine_dum2
      direction 0.000000 1.000000 0.000000
      length 10.941760
      axis 0.0 0.0 0.0 xyz
   end
   begin
      id 15
      name Spine_dum3
      direction 0.000000 1.000000 0.000000
      length 16.646042
      axis 0.0 0.0 0.0 xyz
   end
   begin
      id 16
      name RightShoulder
      direction -1.000000 0.000000 0.000000
      length 7.708937
      axis 0.0 0.0 90.0 xyz
      dof rx ry rz
   end
   begin
      id 17
      name RightArm
      direction -1.000000 0.000000 0.000000
      length 11.521345
      axis 0.0 0.0 90.0 xyz
      dof rx ry rz
   end
   begin
      id 18
      name RightForeArm
      direction -1.000000 0.000000 0.000000
      length 10.175898
      axis 0.0 0.0 90.0 xyz
      dof ry rz rx
   end
   begin
      id 19
      name RightHand
      direction -1.000000 0.000000 0.000000
      length 0.000000
      axis 0.0 0.0 90.0 xyz
      dof rx ry rz
   end
   begin
      id 20
      name RightHand_dum1
      direction -1.000000 0.000000 0.000000
      length 3.937000
      axis 0.0 0.0 90.0 xyz
   end
   begin
      id 21
      name RightHand_dum2
      direction 0.000000 0.000000 0.000000
      length 0.000000
      axis 0.0 0.0 90.0 xyz
   end
   begin
      id 22
      name RightHandThumb1
      direction 0.000000 0.000000 1.000000
      length 3.937000
      axis 0.0 0.0 90.0 xyz
      dof rx rz ry
   end
   begin
      id 23
      name LeftShoulder
      direction 1.000000 0.000000 0.000000
      length 7.708937
      axis 0.0 0.0 -90.0 xyz
      dof rx ry rz
   end
   begin
      id 24
      name LeftArm
      direction 1.000000 0.000000 0.000000
      length 11.521345
      axis 0.0 0.0 -90.0 xyz
      dof rx ry rz
   end
   begin
      id 25
      name LeftForeArm
      direction 1.000000 0.000000 0.000000
      length 10.175898
      axis 0.0 0.0 -90.0 xyz
      dof ry rz rx
   end
   begin
      id 26
      name LeftHand
      direction 1.000000 0.000000 0.000000
      length 0.000000
      axis 0.0 0.0 -90.0 xyz
      dof rx ry rz
   end
   begin
      id 27
      name LeftHand_dum1
      direction 1.000000 0.000000 0.000000
      length 3.937000
      axis 0.0 0.0 -90.0 xyz
   end
   begin
      id 28
      name LeftHand_dum2
      direction 0.000000 0.000000 0.000000
      length 0.000000
      axis 0.0 0.0 -90.0 xyz
   end
   begin
      id 29
      name LeftHandThumb1
      direction 0.000000 0.000000 1.000000
      length 3.937000
      axis 0.0 0.0 -90.0 xyz
      dof rx rz ry
   end
   begin
      id 30
      name Head
      direction 0.000000 1.000000 0.000000
      length 4.527550
      axis 0.0 0.0 0.0 xyz
      dof rx ry rz
   end
:hierarchy
   begin
      root RightUpLeg_dum LeftUpLeg_dum Spine_dum
      RightUpLeg_dum RightUpLeg
      LeftUpLeg_dum LeftUpLeg
      Spine_dum Spine
      RightUpLeg RightLeg
      RightLeg RightFoot
      RightFoot RightToeBase
      LeftUpLeg LeftLeg
      LeftLeg LeftFoot
      LeftFoot LeftToeBase
      Spine Spine_dum1 Spine_dum2 Spine_dum3
      Spine_dum1 RightShoulder
      Spine_dum2 LeftShoulder
      Spine_dum3 Head
      RightShoulder RightArm
      RightArm RightForeArm
      RightForeArm RightHand
      RightHand RightHand_dum1 RightHand_dum2
      RightHand_dum2 RightHandThumb1
      LeftShoulder LeftArm
      LeftArm LeftForeArm
      LeftForeArm LeftHand
      LeftHand LeftHand_dum1 LeftHand_dum2
      LeftHand_dum2 LeftHandThumb1
   end

# File created by Blade
# Date/Time:  Thu Jan 22 16:31:11 2015
# Frame Rate: 120.000 fps
#------------------------------------------------------
:FULLY-SPECIFIED
:DEGREES
40
root 1.028912 37.105048 4.392075 -1.988595 -1.648262 2.023958
RightUpLeg 10.935076 -3.160172 -5.796085
RightLeg -6.033823 -0.000000 0.000000
RightFoot -11.862539 -17.361357 18.990391
RightToeBase 14.190674 -0.000000 -0.000000
LeftUpLeg 8.552017 4.262184 2.404523
LeftLeg -2.327374 -0.000000 0.000000
LeftFoot -8.760439 13.003074 -17.908454
LeftToeBase 9.491933 -0.000000 -0.000000
Spine 4.666186 -3.740056 -0.327295
RightShoulder -5.276544 -11.343783 -27.679943
RightArm 8.545793 29.121724 29.002066
RightForeArm 6.292718 -0.000000 17.948734
RightHand 2.756228 -0.000000 0.298455
RightHandThumb1 -24.326973 -0.000000 -32.862282
LeftShoulder -24.804364 33.077449 14.311163
LeftArm 49.151273 -50.674402 -58.386780
LeftForeArm 39.555955 -0.000000 5.223499
LeftHand -16.317354 0.000000 -4.963239
LeftHandThumb1 -26.253704 0.000000 33.147579
Head -1.262600 12.886936 1.430691
41
root 1.025317 37.107989 4.383366 -2.034348 -1.600966 2.042836
RightUpLeg 10.949252 -3.184595 -5.812173
RightLeg -5.979297 -0.000000 0.000000
RightFoot -11.894010 -17.348832 19.002557
RightToeBase 14.198677 -0.000000 -0.000000
LeftUpLeg 8.449614 4.185086 2.384965
LeftLeg -2.067557 -0.000000 0.000000
LeftFoot -8.867690 13.008647 -17.922339
LeftToeBase 9.506506 -0.000000 -0.000000
Spine 4.780487 -3.762340 -0.318902
RightShoulder -5.275812 -11.319564 -27.645282
RightArm 8.491901 29.134419 28.975272
RightForeArm 6.143378 -0.000000 17.984282
RightHand 2.902505 -0.000000 0.304067
RightHandThumb1 -24.326973 -0.000000 -32.862282
LeftShoulder -24.806225 33.090178 14.313039
LeftArm 49.235783 -50.665896 -58.533841
LeftForeArm 39.639479 0.000000 5.280868
LeftHand -16.433536 -0.000000 -4.770799
LeftHandThumb1 -26.253704 0.000000 33.147579
Head -1.313294 12.884994 1.355539
42
root 1.020257 37.110905 4.371682 -2.070989 -1.551710 2.047729
RightUpLeg 10.957800 -3.154206 -5.804005
RightLeg -5.939618 -0.000000 0.000000
RightFoot -11.903961 -17.398263 19.002649
RightToeBase 14.190729 -0.000000 -0.000000
LeftUpLeg 8.316769 4.085929 2.378377
LeftLeg -1.775677 -0.000000 0.000000
LeftFoot -9.002015 13.020771 -17.968978
LeftToeBase 9.530486 -0.000000 -0.000000
Spine 4.897900 -3.787927 -0.286056
RightShoulder -5.291933 -11.332165 -27.629751
RightArm 8.468964 29.144078 28.987009
RightForeArm 6.211717 0.000000 18.057992
RightHand 2.908252 -0.000000 0.214890
RightHandThumb1 -24.326973 -0.000000 -32.862282
LeftShoulder -24.808542 33.137316 14.298543
LeftArm 49.335457 -50.665860 -58.708468
LeftForeArm 39.668089 -0.000000 5.340217
LeftHand -16.417113 -0.000000 -4.716114
LeftHandThumb1 -26.253704 0.000000 33.147579
Head -1.405337 12.941952 1.263045
43
root 1.017846 37.113469 4.361889 -2.125257 -1.509585 2.058430
RightUpLeg 10.972506 -3.157813 -5.807293
RightLeg -5.875385 -0.000000 0.000000
RightFoot -11.956264 -17.425845 19.030708
RightToeBase 14.245444 -0.000000 -0.000000
LeftUpLeg 8.199145 3.969975 2.357255
LeftLeg -1.470416 -0.000000 0.000000
LeftFoot -9.153627 13.084199 -17.972658
LeftToeBase 9.493329 -0.000000 -0.000000
Spine 5.035797 -3.799197 -0.237905
RightShoulder -5.312346 -11.354682 -27.643906
RightArm 8.473220 29.139996 29.030771
RightForeArm 6.429016 -0.000000 18.144897
RightHand 2.763766 -0.000000 -0.021779
RightHandThumb1 -24.326973 -0.000000 -32.862282
LeftShoulder -24.730403 33.111403 14.308209
LeftArm 49.217485 -50.649922 -58.692908
LeftForeArm 39.654256 -0.000000 5.410666
LeftHand -16.430609 -0.000000 -4.745776
LeftHandThumb1 -26.253704 0.000000 33.147579
Head -1.491573 12.991282 1.176985
44
root 1.015239 37.117155 4.351011 -2.179954 -1.465721 2.077954
RightUpLeg 10.982422 -3.124141 -5.812322
RightLeg -5.804932 -0.000000 0.000000
RightFoot -11.981175 -17.520674 18.982477
RightToeBase 14.106932 -0.000000 -0.000000
LeftUpLeg 8.054989 3.853894 2.331588
LeftLeg -1.113771 -0.000000 0.000000
LeftFoot -9.311146 13.103172 -18.027793
LeftToeBase 9.467879 -0.000000 -0.000000
Spine 5.181769 -3.846969 -0.218219
RightShoulder -5.293818 -11.347605 -27.621668
RightArm 8.446958 29.121171 29.019412
RightForeArm 6.498064 0.000000 18.184904
RightHand 2.783048 -0.000000 -0.158284
RightHandThumb1 -24.326973 -0.000000 -32.862282
LeftShoulder -24.754915 33.135197 14.291624
LeftArm 49.288990 -50.644987 -58.846621
LeftForeArm 39.645515 -0.000000 5.428044
LeftHand -16.237763 0.000000 -4.943479
LeftHandThumb1 -26.253704 0.000000 33.147579
Head -1.570121 13.108400 1.068824
